<svg width="19" height="25" viewBox="0 0 19 25" fill="none" xmlns="http://www.w3.org/2000/svg">
<g id="ph:newspaper-clipping-light">
<path id="Vector" d="M16.0312 4.4375H2.96875C2.69317 4.4375 2.42888 4.57578 2.23402 4.82192C2.03916 5.06806 1.92969 5.4019 1.92969 5.75V20.75C1.92966 20.8459 1.94904 20.9402 1.98597 21.0239C2.02291 21.1077 2.07617 21.1781 2.14071 21.2285C2.20525 21.279 2.27893 21.3077 2.35475 21.3121C2.43056 21.3164 2.506 21.2963 2.57391 21.2534L4.75 19.8791L6.92609 21.2534C6.98786 21.2924 7.05596 21.3127 7.125 21.3127C7.19404 21.3127 7.26214 21.2924 7.32391 21.2534L9.5 19.8791L11.6761 21.2534C11.7379 21.2924 11.806 21.3127 11.875 21.3127C11.944 21.3127 12.0121 21.2924 12.0739 21.2534L14.25 19.8791L16.4261 21.2534C16.4879 21.2923 16.556 21.3126 16.625 21.3125C16.7077 21.3127 16.7887 21.2834 16.8588 21.2281C16.9234 21.1778 16.9767 21.1075 17.0137 21.0238C17.0508 20.9401 17.0702 20.8459 17.0703 20.75V5.75C17.0703 5.4019 16.9608 5.06806 16.766 4.82192C16.5711 4.57578 16.3068 4.4375 16.0312 4.4375ZM16.1797 19.8397L14.4489 18.7466C14.3871 18.7076 14.319 18.6873 14.25 18.6873C14.181 18.6873 14.1129 18.7076 14.0511 18.7466L11.875 20.1209L9.69891 18.7466C9.63714 18.7076 9.56904 18.6873 9.5 18.6873C9.43096 18.6873 9.36286 18.7076 9.30109 18.7466L7.125 20.1209L4.94891 18.7466C4.88714 18.7076 4.81904 18.6873 4.75 18.6873C4.68096 18.6873 4.61286 18.7076 4.55109 18.7466L2.82031 19.8397V5.75C2.82031 5.70027 2.83595 5.65258 2.86379 5.61742C2.89163 5.58225 2.92938 5.5625 2.96875 5.5625H16.0312C16.0706 5.5625 16.1084 5.58225 16.1362 5.61742C16.164 5.65258 16.1797 5.70027 16.1797 5.75V19.8397ZM14.6953 11C14.6953 11.1492 14.6484 11.2923 14.5649 11.3977C14.4814 11.5032 14.3681 11.5625 14.25 11.5625H10.6875C10.5694 11.5625 10.4561 11.5032 10.3726 11.3977C10.2891 11.2923 10.2422 11.1492 10.2422 11C10.2422 10.8508 10.2891 10.7077 10.3726 10.6023C10.4561 10.4968 10.5694 10.4375 10.6875 10.4375H14.25C14.3681 10.4375 14.4814 10.4968 14.5649 10.6023C14.6484 10.7077 14.6953 10.8508 14.6953 11ZM14.6953 14C14.6953 14.1492 14.6484 14.2923 14.5649 14.3977C14.4814 14.5032 14.3681 14.5625 14.25 14.5625H10.6875C10.5694 14.5625 10.4561 14.5032 10.3726 14.3977C10.2891 14.2923 10.2422 14.1492 10.2422 14C10.2422 13.8508 10.2891 13.7077 10.3726 13.6023C10.4561 13.4968 10.5694 13.4375 10.6875 13.4375H14.25C14.3681 13.4375 14.4814 13.4968 14.5649 13.6023C14.6484 13.7077 14.6953 13.8508 14.6953 14ZM8.3125 8.9375H4.75C4.6319 8.9375 4.51863 8.99676 4.43512 9.10225C4.3516 9.20774 4.30469 9.35082 4.30469 9.5V15.5C4.30469 15.6492 4.3516 15.7923 4.43512 15.8977C4.51863 16.0032 4.6319 16.0625 4.75 16.0625H8.3125C8.4306 16.0625 8.54387 16.0032 8.62738 15.8977C8.7109 15.7923 8.75781 15.6492 8.75781 15.5V9.5C8.75781 9.35082 8.7109 9.20774 8.62738 9.10225C8.54387 8.99676 8.4306 8.9375 8.3125 8.9375ZM7.86719 14.9375H5.19531V10.0625H7.86719V14.9375Z" fill="#CCCCCC"/>
</g>
</svg>
