<svg width="18" height="25" viewBox="0 0 18 25" fill="none" xmlns="http://www.w3.org/2000/svg">
<path id="Vector" d="M9 18.6667C8.40326 18.6667 7.83097 18.4208 7.40901 17.9832C6.98705 17.5457 6.75 16.9522 6.75 16.3333C6.75 15.0383 7.75125 14 9 14C9.59674 14 10.169 14.2458 10.591 14.6834C11.0129 15.121 11.25 15.7145 11.25 16.3333C11.25 16.9522 11.0129 17.5457 10.591 17.9832C10.169 18.4208 9.59674 18.6667 9 18.6667ZM15.75 22.1667V10.5H2.25V22.1667H15.75ZM15.75 8.16667C16.3467 8.16667 16.919 8.4125 17.341 8.85008C17.7629 9.28767 18 9.88116 18 10.5V22.1667C18 22.7855 17.7629 23.379 17.341 23.8166C16.919 24.2542 16.3467 24.5 15.75 24.5H2.25C1.65326 24.5 1.08097 24.2542 0.65901 23.8166C0.237053 23.379 0 22.7855 0 22.1667V10.5C0 9.205 1.00125 8.16667 2.25 8.16667H3.375V5.83333C3.375 4.28624 3.96763 2.80251 5.02252 1.70854C6.07742 0.614582 7.50816 0 9 0C9.73869 0 10.4701 0.150884 11.1526 0.444036C11.8351 0.737189 12.4551 1.16687 12.9775 1.70854C13.4998 2.25022 13.9141 2.89328 14.1968 3.60101C14.4795 4.30875 14.625 5.06729 14.625 5.83333V8.16667H15.75ZM9 2.33333C8.10489 2.33333 7.24645 2.70208 6.61351 3.35846C5.98058 4.01484 5.625 4.90508 5.625 5.83333V8.16667H12.375V5.83333C12.375 4.90508 12.0194 4.01484 11.3865 3.35846C10.7536 2.70208 9.89511 2.33333 9 2.33333Z" fill="#CCCCCC"/>
</svg>
