<svg width="22" height="23" viewBox="0 0 22 23" fill="none" xmlns="http://www.w3.org/2000/svg">
<path id="Vector" fill-rule="evenodd" clip-rule="evenodd" d="M11 0.5C8.08262 0.5 5.28473 1.65893 3.22183 3.72183C1.15893 5.78473 0 8.58262 0 11.5C0 14.4174 1.15893 17.2153 3.22183 19.2782C5.28473 21.3411 8.08262 22.5 11 22.5C13.9174 22.5 16.7153 21.3411 18.7782 19.2782C20.8411 17.2153 22 14.4174 22 11.5C22 8.58262 20.8411 5.78473 18.7782 3.72183C16.7153 1.65893 13.9174 0.5 11 0.5ZM11 20.8077C8.53145 20.8077 6.164 19.8271 4.41847 18.0815C2.67294 16.336 1.69231 13.9686 1.69231 11.5C1.69231 9.03145 2.67294 6.664 4.41847 4.91847C6.164 3.17294 8.53145 2.19231 11 2.19231C13.4686 2.19231 15.836 3.17294 17.5815 4.91847C19.3271 6.664 20.3077 9.03145 20.3077 11.5C20.3077 13.9686 19.3271 16.336 17.5815 18.0815C15.836 19.8271 13.4686 20.8077 11 20.8077ZM13.6231 6.55846C13.3307 6.25402 12.9795 6.0122 12.5908 5.84769C12.1017 5.65187 11.5773 5.55967 11.0508 5.57692C10.5397 5.56764 10.0324 5.66565 9.56154 5.86462C9.15708 6.03385 8.8 6.29446 8.51231 6.62615C8.23205 6.93097 8.01365 7.28731 7.86923 7.67538C7.73496 8.06959 7.64971 8.47882 7.61538 8.89385H9.69692C9.70651 8.62525 9.79205 8.36488 9.94361 8.14293C10.0952 7.92098 10.3066 7.74654 10.5532 7.63985C10.7167 7.57543 10.8922 7.54714 11.0677 7.55692C11.2191 7.53287 11.3733 7.53287 11.5246 7.55692C11.6637 7.60951 11.7904 7.69016 11.8969 7.79385C12.0145 7.89558 12.1071 8.02296 12.1677 8.16615C12.237 8.32631 12.2716 8.49934 12.2692 8.67385C12.2692 8.96662 12.2066 9.25431 12.0831 9.52C11.9602 9.79566 11.8069 10.0568 11.6262 10.2985L11.0338 11.0092C10.8308 11.2292 10.6277 11.4662 10.4415 11.7031C10.261 11.9389 10.1078 12.1944 9.98462 12.4646C9.86721 12.731 9.80945 13.0198 9.81538 13.3108V14.4277H11.8462V13.5985C11.8519 13.3503 11.9156 13.1068 12.0323 12.8877C12.1714 12.6441 12.3299 12.412 12.5062 12.1938L13.1154 11.4492C13.3372 11.193 13.5407 10.9216 13.7246 10.6369C13.9191 10.3467 14.0782 10.0342 14.1985 9.70615C14.3219 9.3584 14.3848 8.99208 14.3846 8.62308C14.3876 8.23862 14.3305 7.85605 14.2154 7.48923C14.0876 7.13979 13.8855 6.82223 13.6231 6.55846ZM9.81538 15.4431H11.7954V17.4231H9.81538V15.4431Z" fill="#CCCCCC"/>
</svg>
