<svg width="27" height="29" viewBox="0 0 27 29" fill="none" xmlns="http://www.w3.org/2000/svg">
<path id="Vector" d="M13.5 19.9375C14.8427 19.9375 16.1303 19.3646 17.0797 18.3449C18.0291 17.3252 18.5625 15.9421 18.5625 14.5C18.5625 13.0579 18.0291 11.6748 17.0797 10.6551C16.1303 9.63538 14.8427 9.0625 13.5 9.0625C12.1573 9.0625 10.8697 9.63538 9.92027 10.6551C8.97087 11.6748 8.4375 13.0579 8.4375 14.5C8.4375 15.9421 8.97087 17.3252 9.92027 18.3449C10.8697 19.3646 12.1573 19.9375 13.5 19.9375ZM14.3438 0.90625C14.3438 0.665898 14.2549 0.435389 14.0966 0.265435C13.9384 0.0954798 13.7238 0 13.5 0C13.2762 0 13.0616 0.0954798 12.9034 0.265435C12.7451 0.435389 12.6562 0.665898 12.6562 0.90625V3.66125C10.2704 3.87556 8.03247 4.99084 6.33956 6.80916C4.64664 8.62747 3.60828 11.0312 3.40875 13.5938H0.84375C0.619974 13.5938 0.405363 13.6892 0.247129 13.8592C0.088895 14.0291 0 14.2596 0 14.5C0 14.7404 0.088895 14.9709 0.247129 15.1408C0.405363 15.3108 0.619974 15.4062 0.84375 15.4062H3.40875C3.60828 17.9688 4.64664 20.3725 6.33956 22.1908C8.03247 24.0092 10.2704 25.1244 12.6562 25.3387V28.0938C12.6562 28.3341 12.7451 28.5646 12.9034 28.7346C13.0616 28.9045 13.2762 29 13.5 29C13.7238 29 13.9384 28.9045 14.0966 28.7346C14.2549 28.5646 14.3438 28.3341 14.3438 28.0938V25.3387C16.7294 25.1241 18.9672 24.0087 20.6601 22.1904C22.3529 20.3722 23.3914 17.9687 23.5912 15.4062H26.1562C26.38 15.4062 26.5946 15.3108 26.7529 15.1408C26.9111 14.9709 27 14.7404 27 14.5C27 14.2596 26.9111 14.0291 26.7529 13.8592C26.5946 13.6892 26.38 13.5938 26.1562 13.5938H23.5912C23.3917 11.0312 22.3534 8.62747 20.6604 6.80916C18.9675 4.99084 16.7296 3.87556 14.3438 3.66125V0.90625ZM13.5 23.5625C11.2622 23.5625 9.11613 22.6077 7.53379 20.9082C5.95145 19.2086 5.0625 16.9035 5.0625 14.5C5.0625 12.0965 5.95145 9.79139 7.53379 8.09184C9.11613 6.3923 11.2622 5.4375 13.5 5.4375C15.7378 5.4375 17.8839 6.3923 19.4662 8.09184C21.0486 9.79139 21.9375 12.0965 21.9375 14.5C21.9375 16.9035 21.0486 19.2086 19.4662 20.9082C17.8839 22.6077 15.7378 23.5625 13.5 23.5625Z" fill="#CCCCCC"/>
</svg>
